<mxfile host="app.diagrams.net" modified="2023-08-14T05:52:00.696Z" agent="Mozilla/5.0 (Windows NT 10.0; Win64; x64) AppleWebKit/537.36 (KHTML, like Gecko) Chrome/115.0.0.0 Safari/537.36" etag="NYb3UD-VmtvEoGD_ck_L" version="21.6.8" type="github">
  <diagram name="第 1 页" id="rJjXY-FW-68oKwq0JmJk">
    <mxGraphModel dx="2261" dy="758" grid="0" gridSize="10" guides="1" tooltips="1" connect="1" arrows="1" fold="1" page="1" pageScale="1" pageWidth="827" pageHeight="1169" math="0" shadow="0">
      <root>
        <mxCell id="0" />
        <mxCell id="1" parent="0" />
        <mxCell id="hvor46DNVKZ378C6uqmm-1" value="&lt;font style=&quot;font-size: 20px;&quot;&gt;plc_main.c&lt;/font&gt;" style="rounded=0;whiteSpace=wrap;html=1;" vertex="1" parent="1">
          <mxGeometry x="-422" y="505" width="179" height="73" as="geometry" />
        </mxCell>
        <mxCell id="hvor46DNVKZ378C6uqmm-2" value="&lt;font style=&quot;font-size: 20px;&quot;&gt;py_ext.c&lt;/font&gt;" style="rounded=0;whiteSpace=wrap;html=1;" vertex="1" parent="1">
          <mxGeometry x="244" y="382" width="181" height="79" as="geometry" />
        </mxCell>
        <mxCell id="hvor46DNVKZ378C6uqmm-3" value="&lt;font style=&quot;font-size: 20px;&quot;&gt;POUS.c&lt;/font&gt;" style="rounded=0;whiteSpace=wrap;html=1;" vertex="1" parent="1">
          <mxGeometry x="597" y="527" width="165" height="79" as="geometry" />
        </mxCell>
        <mxCell id="hvor46DNVKZ378C6uqmm-4" value="&lt;font style=&quot;font-size: 20px;&quot;&gt;PLC_debugger.c&lt;/font&gt;" style="rounded=0;whiteSpace=wrap;html=1;" vertex="1" parent="1">
          <mxGeometry x="244" y="516" width="181" height="80" as="geometry" />
        </mxCell>
        <mxCell id="hvor46DNVKZ378C6uqmm-7" value="&lt;div style=&quot;margin: 0px; padding: 0px 1em 0px 0em; border-radius: 0px; background: none rgb(255, 255, 255); border: 0px; inset: auto; float: none; height: auto; line-height: 20px; outline: 0px; overflow: visible; position: static; text-align: left; vertical-align: baseline; width: auto; box-sizing: content-box; font-family: Consolas, &amp;quot;Bitstream Vera Sans Mono&amp;quot;, &amp;quot;Courier New&amp;quot;, Courier, monospace; font-size: 14px; min-height: inherit; color: rgb(51, 51, 51);&quot; data-bidi-marker=&quot;true&quot; class=&quot;line number4 index3 alt1&quot;&gt;&lt;code style=&quot;font-family: Consolas, &amp;quot;Bitstream Vera Sans Mono&amp;quot;, &amp;quot;Courier New&amp;quot;, Courier, monospace; border-radius: 0px; background: none; border: 0px; inset: auto; float: none; height: auto; line-height: 20px; margin: 0px; outline: 0px; overflow: visible; padding: 0px; position: static; vertical-align: baseline; width: auto; box-sizing: content-box; min-height: inherit; font-weight: bold !important; color: rgb(51, 102, 153) !important;&quot; class=&quot;cpp keyword bold&quot;&gt;void&lt;/code&gt;&amp;nbsp;&lt;code style=&quot;font-family: Consolas, &amp;quot;Bitstream Vera Sans Mono&amp;quot;, &amp;quot;Courier New&amp;quot;, Courier, monospace; border-radius: 0px; background: none; border: 0px; inset: auto; float: none; height: auto; line-height: 20px; margin: 0px; outline: 0px; overflow: visible; padding: 0px; position: static; vertical-align: baseline; width: auto; box-sizing: content-box; min-height: inherit; color: rgb(0, 0, 0) !important;&quot; class=&quot;cpp plain&quot;&gt;__run(&lt;/code&gt;&lt;code style=&quot;font-family: Consolas, &amp;quot;Bitstream Vera Sans Mono&amp;quot;, &amp;quot;Courier New&amp;quot;, Courier, monospace; border-radius: 0px; background: none; border: 0px; inset: auto; float: none; height: auto; line-height: 20px; margin: 0px; outline: 0px; overflow: visible; padding: 0px; position: static; vertical-align: baseline; width: auto; box-sizing: content-box; min-height: inherit; font-weight: bold !important; color: rgb(51, 102, 153) !important;&quot; class=&quot;cpp keyword bold&quot;&gt;void&lt;/code&gt;&lt;code style=&quot;font-family: Consolas, &amp;quot;Bitstream Vera Sans Mono&amp;quot;, &amp;quot;Courier New&amp;quot;, Courier, monospace; border-radius: 0px; background: none; border: 0px; inset: auto; float: none; height: auto; line-height: 20px; margin: 0px; outline: 0px; overflow: visible; padding: 0px; position: static; vertical-align: baseline; width: auto; box-sizing: content-box; min-height: inherit; color: rgb(0, 0, 0) !important;&quot; class=&quot;cpp plain&quot;&gt;)&lt;/code&gt;&lt;/div&gt;&lt;div style=&quot;margin: 0px; padding: 0px 1em 0px 0em; border-radius: 0px; background: none rgb(255, 255, 255); border: 0px; inset: auto; float: none; height: auto; line-height: 20px; outline: 0px; overflow: visible; position: static; text-align: left; vertical-align: baseline; width: auto; box-sizing: content-box; font-family: Consolas, &amp;quot;Bitstream Vera Sans Mono&amp;quot;, &amp;quot;Courier New&amp;quot;, Courier, monospace; font-size: 14px; min-height: inherit; color: rgb(51, 51, 51);&quot; data-bidi-marker=&quot;true&quot; class=&quot;line number5 index4 alt2&quot;&gt;&lt;code style=&quot;font-family: Consolas, &amp;quot;Bitstream Vera Sans Mono&amp;quot;, &amp;quot;Courier New&amp;quot;, Courier, monospace; border-radius: 0px; background: none; border: 0px; inset: auto; float: none; height: auto; line-height: 20px; margin: 0px; outline: 0px; overflow: visible; padding: 0px; position: static; vertical-align: baseline; width: auto; box-sizing: content-box; min-height: inherit; color: rgb(0, 0, 0) !important;&quot; class=&quot;cpp plain&quot;&gt;{&lt;/code&gt;&lt;/div&gt;&lt;div style=&quot;margin: 0px; padding: 0px 1em 0px 0em; border-radius: 0px; background: none rgb(255, 255, 255); border: 0px; inset: auto; float: none; height: auto; line-height: 20px; outline: 0px; overflow: visible; position: static; text-align: left; vertical-align: baseline; width: auto; box-sizing: content-box; font-family: Consolas, &amp;quot;Bitstream Vera Sans Mono&amp;quot;, &amp;quot;Courier New&amp;quot;, Courier, monospace; font-size: 14px; min-height: inherit; color: rgb(51, 51, 51);&quot; data-bidi-marker=&quot;true&quot; class=&quot;line number6 index5 alt1&quot;&gt;&lt;code style=&quot;font-family: Consolas, &amp;quot;Bitstream Vera Sans Mono&amp;quot;, &amp;quot;Courier New&amp;quot;, Courier, monospace; border-radius: 0px; background: none; border: 0px; inset: auto; float: none; height: auto; line-height: 20px; margin: 0px; outline: 0px; overflow: visible; padding: 0px; position: static; vertical-align: baseline; width: auto; box-sizing: content-box; min-height: inherit;&quot; class=&quot;cpp spaces&quot;&gt;&amp;nbsp;&amp;nbsp;&amp;nbsp;&amp;nbsp;&lt;/code&gt;&lt;code style=&quot;font-family: Consolas, &amp;quot;Bitstream Vera Sans Mono&amp;quot;, &amp;quot;Courier New&amp;quot;, Courier, monospace; border-radius: 0px; background: none; border: 0px; inset: auto; float: none; height: auto; line-height: 20px; margin: 0px; outline: 0px; overflow: visible; padding: 0px; position: static; vertical-align: baseline; width: auto; box-sizing: content-box; min-height: inherit; color: rgb(0, 0, 0) !important;&quot; class=&quot;cpp plain&quot;&gt;__tick++;&lt;/code&gt;&lt;/div&gt;&lt;div style=&quot;margin: 0px; padding: 0px 1em 0px 0em; border-radius: 0px; background: none rgb(255, 255, 255); border: 0px; inset: auto; float: none; height: auto; line-height: 20px; outline: 0px; overflow: visible; position: static; text-align: left; vertical-align: baseline; width: auto; box-sizing: content-box; font-family: Consolas, &amp;quot;Bitstream Vera Sans Mono&amp;quot;, &amp;quot;Courier New&amp;quot;, Courier, monospace; font-size: 14px; min-height: inherit; color: rgb(51, 51, 51);&quot; data-bidi-marker=&quot;true&quot; class=&quot;line number7 index6 alt2&quot;&gt;&lt;code style=&quot;font-family: Consolas, &amp;quot;Bitstream Vera Sans Mono&amp;quot;, &amp;quot;Courier New&amp;quot;, Courier, monospace; border-radius: 0px; background: none; border: 0px; inset: auto; float: none; height: auto; line-height: 20px; margin: 0px; outline: 0px; overflow: visible; padding: 0px; position: static; vertical-align: baseline; width: auto; box-sizing: content-box; min-height: inherit;&quot; class=&quot;cpp spaces&quot;&gt;&amp;nbsp;&amp;nbsp;&amp;nbsp;&amp;nbsp;&lt;/code&gt;&lt;code style=&quot;font-family: Consolas, &amp;quot;Bitstream Vera Sans Mono&amp;quot;, &amp;quot;Courier New&amp;quot;, Courier, monospace; border-radius: 0px; background: none; border: 0px; inset: auto; float: none; height: auto; line-height: 20px; margin: 0px; outline: 0px; overflow: visible; padding: 0px; position: static; vertical-align: baseline; width: auto; box-sizing: content-box; min-height: inherit; font-weight: bold !important; color: rgb(51, 102, 153) !important;&quot; class=&quot;cpp keyword bold&quot;&gt;if&lt;/code&gt;&amp;nbsp;&lt;code style=&quot;font-family: Consolas, &amp;quot;Bitstream Vera Sans Mono&amp;quot;, &amp;quot;Courier New&amp;quot;, Courier, monospace; border-radius: 0px; background: none; border: 0px; inset: auto; float: none; height: auto; line-height: 20px; margin: 0px; outline: 0px; overflow: visible; padding: 0px; position: static; vertical-align: baseline; width: auto; box-sizing: content-box; min-height: inherit; color: rgb(0, 0, 0) !important;&quot; class=&quot;cpp plain&quot;&gt;(greatest_tick_count__)&lt;/code&gt;&lt;/div&gt;&lt;div style=&quot;margin: 0px; padding: 0px 1em 0px 0em; border-radius: 0px; background: none rgb(255, 255, 255); border: 0px; inset: auto; float: none; height: auto; line-height: 20px; outline: 0px; overflow: visible; position: static; text-align: left; vertical-align: baseline; width: auto; box-sizing: content-box; font-family: Consolas, &amp;quot;Bitstream Vera Sans Mono&amp;quot;, &amp;quot;Courier New&amp;quot;, Courier, monospace; font-size: 14px; min-height: inherit; color: rgb(51, 51, 51);&quot; data-bidi-marker=&quot;true&quot; class=&quot;line number8 index7 alt1&quot;&gt;&lt;code style=&quot;font-family: Consolas, &amp;quot;Bitstream Vera Sans Mono&amp;quot;, &amp;quot;Courier New&amp;quot;, Courier, monospace; border-radius: 0px; background: none; border: 0px; inset: auto; float: none; height: auto; line-height: 20px; margin: 0px; outline: 0px; overflow: visible; padding: 0px; position: static; vertical-align: baseline; width: auto; box-sizing: content-box; min-height: inherit;&quot; class=&quot;cpp spaces&quot;&gt;&amp;nbsp;&amp;nbsp;&amp;nbsp;&amp;nbsp;&amp;nbsp;&amp;nbsp;&amp;nbsp;&amp;nbsp;&lt;/code&gt;&lt;code style=&quot;font-family: Consolas, &amp;quot;Bitstream Vera Sans Mono&amp;quot;, &amp;quot;Courier New&amp;quot;, Courier, monospace; border-radius: 0px; background: none; border: 0px; inset: auto; float: none; height: auto; line-height: 20px; margin: 0px; outline: 0px; overflow: visible; padding: 0px; position: static; vertical-align: baseline; width: auto; box-sizing: content-box; min-height: inherit; color: rgb(0, 0, 0) !important;&quot; class=&quot;cpp plain&quot;&gt;__tick %= greatest_tick_count__;&lt;/code&gt;&lt;/div&gt;&lt;div style=&quot;margin: 0px; padding: 0px 1em 0px 0em; border-radius: 0px; background: none rgb(255, 255, 255); border: 0px; inset: auto; float: none; height: auto; line-height: 20px; outline: 0px; overflow: visible; position: static; text-align: left; vertical-align: baseline; width: auto; box-sizing: content-box; font-family: Consolas, &amp;quot;Bitstream Vera Sans Mono&amp;quot;, &amp;quot;Courier New&amp;quot;, Courier, monospace; font-size: 14px; min-height: inherit; color: rgb(51, 51, 51);&quot; data-bidi-marker=&quot;true&quot; class=&quot;line number9 index8 alt2&quot;&gt;&lt;code style=&quot;font-family: Consolas, &amp;quot;Bitstream Vera Sans Mono&amp;quot;, &amp;quot;Courier New&amp;quot;, Courier, monospace; border-radius: 0px; background: none; border: 0px; inset: auto; float: none; height: auto; line-height: 20px; margin: 0px; outline: 0px; overflow: visible; padding: 0px; position: static; vertical-align: baseline; width: auto; box-sizing: content-box; min-height: inherit;&quot; class=&quot;cpp spaces&quot;&gt;&amp;nbsp;&amp;nbsp;&amp;nbsp;&amp;nbsp;&lt;/code&gt;&amp;nbsp;&lt;/div&gt;&lt;div style=&quot;margin: 0px; padding: 0px 1em 0px 0em; border-radius: 0px; background: none rgb(255, 255, 255); border: 0px; inset: auto; float: none; height: auto; line-height: 20px; outline: 0px; overflow: visible; position: static; text-align: left; vertical-align: baseline; width: auto; box-sizing: content-box; font-family: Consolas, &amp;quot;Bitstream Vera Sans Mono&amp;quot;, &amp;quot;Courier New&amp;quot;, Courier, monospace; font-size: 14px; min-height: inherit; color: rgb(51, 51, 51);&quot; data-bidi-marker=&quot;true&quot; class=&quot;line number10 index9 alt1&quot;&gt;&lt;code style=&quot;font-family: Consolas, &amp;quot;Bitstream Vera Sans Mono&amp;quot;, &amp;quot;Courier New&amp;quot;, Courier, monospace; border-radius: 0px; background: none; border: 0px; inset: auto; float: none; height: auto; line-height: 20px; margin: 0px; outline: 0px; overflow: visible; padding: 0px; position: static; vertical-align: baseline; width: auto; box-sizing: content-box; min-height: inherit;&quot; class=&quot;cpp spaces&quot;&gt;&amp;nbsp;&amp;nbsp;&amp;nbsp;&amp;nbsp;&lt;/code&gt;&lt;code style=&quot;font-family: Consolas, &amp;quot;Bitstream Vera Sans Mono&amp;quot;, &amp;quot;Courier New&amp;quot;, Courier, monospace; border-radius: 0px; background: none; border: 0px; inset: auto; float: none; height: auto; line-height: 20px; margin: 0px; outline: 0px; overflow: visible; padding: 0px; position: static; vertical-align: baseline; width: auto; box-sizing: content-box; min-height: inherit; color: rgb(0, 130, 0) !important;&quot; class=&quot;cpp comments&quot;&gt;// 该函数用于从外部源获取输入变量的值。&lt;/code&gt;&lt;/div&gt;&lt;div style=&quot;margin: 0px; padding: 0px 1em 0px 0em; border-radius: 0px; background: none rgb(255, 255, 255); border: 0px; inset: auto; float: none; height: auto; line-height: 20px; outline: 0px; overflow: visible; position: static; text-align: left; vertical-align: baseline; width: auto; box-sizing: content-box; font-family: Consolas, &amp;quot;Bitstream Vera Sans Mono&amp;quot;, &amp;quot;Courier New&amp;quot;, Courier, monospace; font-size: 14px; min-height: inherit; color: rgb(51, 51, 51);&quot; data-bidi-marker=&quot;true&quot; class=&quot;line number11 index10 alt2&quot;&gt;&lt;code style=&quot;font-family: Consolas, &amp;quot;Bitstream Vera Sans Mono&amp;quot;, &amp;quot;Courier New&amp;quot;, Courier, monospace; border-radius: 0px; background: none; border: 0px; inset: auto; float: none; height: auto; line-height: 20px; margin: 0px; outline: 0px; overflow: visible; padding: 0px; position: static; vertical-align: baseline; width: auto; box-sizing: content-box; min-height: inherit;&quot; class=&quot;cpp spaces&quot;&gt;&amp;nbsp;&amp;nbsp;&amp;nbsp;&amp;nbsp;&lt;/code&gt;&lt;code style=&quot;font-family: Consolas, &amp;quot;Bitstream Vera Sans Mono&amp;quot;, &amp;quot;Courier New&amp;quot;, Courier, monospace; border-radius: 0px; background: none; border: 0px; inset: auto; float: none; height: auto; line-height: 20px; margin: 0px; outline: 0px; overflow: visible; padding: 0px; position: static; vertical-align: baseline; width: auto; box-sizing: content-box; min-height: inherit; color: rgb(0, 0, 0) !important;&quot; class=&quot;cpp plain&quot;&gt;__retrieve_py_ext();&lt;/code&gt;&lt;/div&gt;&lt;div style=&quot;margin: 0px; padding: 0px 1em 0px 0em; border-radius: 0px; background: none rgb(255, 255, 255); border: 0px; inset: auto; float: none; height: auto; line-height: 20px; outline: 0px; overflow: visible; position: static; text-align: left; vertical-align: baseline; width: auto; box-sizing: content-box; font-family: Consolas, &amp;quot;Bitstream Vera Sans Mono&amp;quot;, &amp;quot;Courier New&amp;quot;, Courier, monospace; font-size: 14px; min-height: inherit; color: rgb(51, 51, 51);&quot; data-bidi-marker=&quot;true&quot; class=&quot;line number12 index11 alt1&quot;&gt;&amp;nbsp;&lt;/div&gt;&lt;div style=&quot;margin: 0px; padding: 0px 1em 0px 0em; border-radius: 0px; background: none rgb(255, 255, 255); border: 0px; inset: auto; float: none; height: auto; line-height: 20px; outline: 0px; overflow: visible; position: static; text-align: left; vertical-align: baseline; width: auto; box-sizing: content-box; font-family: Consolas, &amp;quot;Bitstream Vera Sans Mono&amp;quot;, &amp;quot;Courier New&amp;quot;, Courier, monospace; font-size: 14px; min-height: inherit; color: rgb(51, 51, 51);&quot; data-bidi-marker=&quot;true&quot; class=&quot;line number13 index12 alt2&quot;&gt;&lt;code style=&quot;font-family: Consolas, &amp;quot;Bitstream Vera Sans Mono&amp;quot;, &amp;quot;Courier New&amp;quot;, Courier, monospace; border-radius: 0px; background: none; border: 0px; inset: auto; float: none; height: auto; line-height: 20px; margin: 0px; outline: 0px; overflow: visible; padding: 0px; position: static; vertical-align: baseline; width: auto; box-sizing: content-box; min-height: inherit;&quot; class=&quot;cpp spaces&quot;&gt;&amp;nbsp;&amp;nbsp;&amp;nbsp;&amp;nbsp;&lt;/code&gt;&lt;code style=&quot;font-family: Consolas, &amp;quot;Bitstream Vera Sans Mono&amp;quot;, &amp;quot;Courier New&amp;quot;, Courier, monospace; border-radius: 0px; background: none; border: 0px; inset: auto; float: none; height: auto; line-height: 20px; margin: 0px; outline: 0px; overflow: visible; padding: 0px; position: static; vertical-align: baseline; width: auto; box-sizing: content-box; min-height: inherit; color: rgb(0, 130, 0) !important;&quot; class=&quot;cpp comments&quot;&gt;/*__retrieve_debug();*/&lt;/code&gt;&lt;/div&gt;&lt;div style=&quot;margin: 0px; padding: 0px 1em 0px 0em; border-radius: 0px; background: none rgb(255, 255, 255); border: 0px; inset: auto; float: none; height: auto; line-height: 20px; outline: 0px; overflow: visible; position: static; text-align: left; vertical-align: baseline; width: auto; box-sizing: content-box; font-family: Consolas, &amp;quot;Bitstream Vera Sans Mono&amp;quot;, &amp;quot;Courier New&amp;quot;, Courier, monospace; font-size: 14px; min-height: inherit; color: rgb(51, 51, 51);&quot; data-bidi-marker=&quot;true&quot; class=&quot;line number14 index13 alt1&quot;&gt;&amp;nbsp;&lt;/div&gt;&lt;div style=&quot;margin: 0px; padding: 0px 1em 0px 0em; border-radius: 0px; background: none rgb(255, 255, 255); border: 0px; inset: auto; float: none; height: auto; line-height: 20px; outline: 0px; overflow: visible; position: static; text-align: left; vertical-align: baseline; width: auto; box-sizing: content-box; font-family: Consolas, &amp;quot;Bitstream Vera Sans Mono&amp;quot;, &amp;quot;Courier New&amp;quot;, Courier, monospace; font-size: 14px; min-height: inherit; color: rgb(51, 51, 51);&quot; data-bidi-marker=&quot;true&quot; class=&quot;line number15 index14 alt2&quot;&gt;&lt;code style=&quot;font-family: Consolas, &amp;quot;Bitstream Vera Sans Mono&amp;quot;, &amp;quot;Courier New&amp;quot;, Courier, monospace; border-radius: 0px; background: none; border: 0px; inset: auto; float: none; height: auto; line-height: 20px; margin: 0px; outline: 0px; overflow: visible; padding: 0px; position: static; vertical-align: baseline; width: auto; box-sizing: content-box; min-height: inherit;&quot; class=&quot;cpp spaces&quot;&gt;&amp;nbsp;&amp;nbsp;&amp;nbsp;&amp;nbsp;&lt;/code&gt;&lt;code style=&quot;font-family: Consolas, &amp;quot;Bitstream Vera Sans Mono&amp;quot;, &amp;quot;Courier New&amp;quot;, Courier, monospace; border-radius: 0px; background: none; border: 0px; inset: auto; float: none; height: auto; line-height: 20px; margin: 0px; outline: 0px; overflow: visible; padding: 0px; position: static; vertical-align: baseline; width: auto; box-sizing: content-box; min-height: inherit; color: rgb(0, 0, 0) !important;&quot; class=&quot;cpp plain&quot;&gt;config_run__(__tick);&lt;/code&gt;&lt;/div&gt;&lt;div style=&quot;margin: 0px; padding: 0px 1em 0px 0em; border-radius: 0px; background: none rgb(255, 255, 255); border: 0px; inset: auto; float: none; height: auto; line-height: 20px; outline: 0px; overflow: visible; position: static; text-align: left; vertical-align: baseline; width: auto; box-sizing: content-box; font-family: Consolas, &amp;quot;Bitstream Vera Sans Mono&amp;quot;, &amp;quot;Courier New&amp;quot;, Courier, monospace; font-size: 14px; min-height: inherit; color: rgb(51, 51, 51);&quot; data-bidi-marker=&quot;true&quot; class=&quot;line number16 index15 alt1&quot;&gt;&amp;nbsp;&lt;/div&gt;&lt;div style=&quot;margin: 0px; padding: 0px 1em 0px 0em; border-radius: 0px; background: none rgb(255, 255, 255); border: 0px; inset: auto; float: none; height: auto; line-height: 20px; outline: 0px; overflow: visible; position: static; text-align: left; vertical-align: baseline; width: auto; box-sizing: content-box; font-family: Consolas, &amp;quot;Bitstream Vera Sans Mono&amp;quot;, &amp;quot;Courier New&amp;quot;, Courier, monospace; font-size: 14px; min-height: inherit; color: rgb(51, 51, 51);&quot; data-bidi-marker=&quot;true&quot; class=&quot;line number17 index16 alt2&quot;&gt;&lt;code style=&quot;font-family: Consolas, &amp;quot;Bitstream Vera Sans Mono&amp;quot;, &amp;quot;Courier New&amp;quot;, Courier, monospace; border-radius: 0px; background: none; border: 0px; inset: auto; float: none; height: auto; line-height: 20px; margin: 0px; outline: 0px; overflow: visible; padding: 0px; position: static; vertical-align: baseline; width: auto; box-sizing: content-box; min-height: inherit;&quot; class=&quot;cpp spaces&quot;&gt;&amp;nbsp;&amp;nbsp;&amp;nbsp;&amp;nbsp;&lt;/code&gt;&lt;code style=&quot;font-family: Consolas, &amp;quot;Bitstream Vera Sans Mono&amp;quot;, &amp;quot;Courier New&amp;quot;, Courier, monospace; border-radius: 0px; background: none; border: 0px; inset: auto; float: none; height: auto; line-height: 20px; margin: 0px; outline: 0px; overflow: visible; padding: 0px; position: static; vertical-align: baseline; width: auto; box-sizing: content-box; min-height: inherit; color: rgb(0, 0, 0) !important;&quot; class=&quot;cpp plain&quot;&gt;__publish_debug();&lt;/code&gt;&lt;/div&gt;&lt;div style=&quot;margin: 0px; padding: 0px 1em 0px 0em; border-radius: 0px; background: none rgb(255, 255, 255); border: 0px; inset: auto; float: none; height: auto; line-height: 20px; outline: 0px; overflow: visible; position: static; text-align: left; vertical-align: baseline; width: auto; box-sizing: content-box; font-family: Consolas, &amp;quot;Bitstream Vera Sans Mono&amp;quot;, &amp;quot;Courier New&amp;quot;, Courier, monospace; font-size: 14px; min-height: inherit; color: rgb(51, 51, 51);&quot; data-bidi-marker=&quot;true&quot; class=&quot;line number18 index17 alt1&quot;&gt;&lt;code style=&quot;font-family: Consolas, &amp;quot;Bitstream Vera Sans Mono&amp;quot;, &amp;quot;Courier New&amp;quot;, Courier, monospace; border-radius: 0px; background: none; border: 0px; inset: auto; float: none; height: auto; line-height: 20px; margin: 0px; outline: 0px; overflow: visible; padding: 0px; position: static; vertical-align: baseline; width: auto; box-sizing: content-box; min-height: inherit;&quot; class=&quot;cpp spaces&quot;&gt;&amp;nbsp;&amp;nbsp;&amp;nbsp;&amp;nbsp;&lt;/code&gt;&lt;code style=&quot;font-family: Consolas, &amp;quot;Bitstream Vera Sans Mono&amp;quot;, &amp;quot;Courier New&amp;quot;, Courier, monospace; border-radius: 0px; background: none; border: 0px; inset: auto; float: none; height: auto; line-height: 20px; margin: 0px; outline: 0px; overflow: visible; padding: 0px; position: static; vertical-align: baseline; width: auto; box-sizing: content-box; min-height: inherit; color: rgb(0, 130, 0) !important;&quot; class=&quot;cpp comments&quot;&gt;// 可能用于将PLC计算结果作为输出变量发布到外部。&lt;/code&gt;&lt;/div&gt;&lt;div style=&quot;margin: 0px; padding: 0px 1em 0px 0em; border-radius: 0px; background: none rgb(255, 255, 255); border: 0px; inset: auto; float: none; height: auto; line-height: 20px; outline: 0px; overflow: visible; position: static; text-align: left; vertical-align: baseline; width: auto; box-sizing: content-box; font-family: Consolas, &amp;quot;Bitstream Vera Sans Mono&amp;quot;, &amp;quot;Courier New&amp;quot;, Courier, monospace; font-size: 14px; min-height: inherit; color: rgb(51, 51, 51);&quot; data-bidi-marker=&quot;true&quot; class=&quot;line number19 index18 alt2&quot;&gt;&lt;code style=&quot;font-family: Consolas, &amp;quot;Bitstream Vera Sans Mono&amp;quot;, &amp;quot;Courier New&amp;quot;, Courier, monospace; border-radius: 0px; background: none; border: 0px; inset: auto; float: none; height: auto; line-height: 20px; margin: 0px; outline: 0px; overflow: visible; padding: 0px; position: static; vertical-align: baseline; width: auto; box-sizing: content-box; min-height: inherit;&quot; class=&quot;cpp spaces&quot;&gt;&amp;nbsp;&amp;nbsp;&amp;nbsp;&amp;nbsp;&lt;/code&gt;&lt;code style=&quot;font-family: Consolas, &amp;quot;Bitstream Vera Sans Mono&amp;quot;, &amp;quot;Courier New&amp;quot;, Courier, monospace; border-radius: 0px; background: none; border: 0px; inset: auto; float: none; height: auto; line-height: 20px; margin: 0px; outline: 0px; overflow: visible; padding: 0px; position: static; vertical-align: baseline; width: auto; box-sizing: content-box; min-height: inherit; color: rgb(0, 0, 0) !important;&quot; class=&quot;cpp plain&quot;&gt;__publish_py_ext();&lt;/code&gt;&lt;/div&gt;&lt;div style=&quot;margin: 0px; padding: 0px 1em 0px 0em; border-radius: 0px; background: none rgb(255, 255, 255); border: 0px; inset: auto; float: none; height: auto; line-height: 20px; outline: 0px; overflow: visible; position: static; text-align: left; vertical-align: baseline; width: auto; box-sizing: content-box; font-family: Consolas, &amp;quot;Bitstream Vera Sans Mono&amp;quot;, &amp;quot;Courier New&amp;quot;, Courier, monospace; font-size: 14px; min-height: inherit; color: rgb(51, 51, 51);&quot; data-bidi-marker=&quot;true&quot; class=&quot;line number20 index19 alt1&quot;&gt;&amp;nbsp;&lt;/div&gt;&lt;div style=&quot;margin: 0px; padding: 0px 1em 0px 0em; border-radius: 0px; background: none rgb(255, 255, 255); border: 0px; inset: auto; float: none; height: auto; line-height: 20px; outline: 0px; overflow: visible; position: static; text-align: left; vertical-align: baseline; width: auto; box-sizing: content-box; font-family: Consolas, &amp;quot;Bitstream Vera Sans Mono&amp;quot;, &amp;quot;Courier New&amp;quot;, Courier, monospace; font-size: 14px; min-height: inherit; color: rgb(51, 51, 51);&quot; data-bidi-marker=&quot;true&quot; class=&quot;line number21 index20 alt2&quot;&gt;&lt;code style=&quot;font-family: Consolas, &amp;quot;Bitstream Vera Sans Mono&amp;quot;, &amp;quot;Courier New&amp;quot;, Courier, monospace; border-radius: 0px; background: none; border: 0px; inset: auto; float: none; height: auto; line-height: 20px; margin: 0px; outline: 0px; overflow: visible; padding: 0px; position: static; vertical-align: baseline; width: auto; box-sizing: content-box; min-height: inherit; color: rgb(0, 0, 0) !important;&quot; class=&quot;cpp plain&quot;&gt;}&lt;/code&gt;&lt;/div&gt;" style="text;html=1;align=center;verticalAlign=middle;resizable=0;points=[];autosize=1;strokeColor=none;fillColor=none;" vertex="1" parent="1">
          <mxGeometry x="-243" y="370" width="403" height="372" as="geometry" />
        </mxCell>
        <mxCell id="hvor46DNVKZ378C6uqmm-9" value="" style="endArrow=classic;html=1;rounded=0;" edge="1" parent="1">
          <mxGeometry width="50" height="50" relative="1" as="geometry">
            <mxPoint x="-47" y="528" as="sourcePoint" />
            <mxPoint x="243" y="408" as="targetPoint" />
          </mxGeometry>
        </mxCell>
        <mxCell id="hvor46DNVKZ378C6uqmm-11" value="&lt;font style=&quot;font-size: 20px;&quot;&gt;py_ext.c&lt;/font&gt;" style="rounded=0;whiteSpace=wrap;html=1;" vertex="1" parent="1">
          <mxGeometry x="247" y="651" width="181" height="79" as="geometry" />
        </mxCell>
        <mxCell id="hvor46DNVKZ378C6uqmm-12" value="" style="endArrow=classic;html=1;rounded=0;entryX=0;entryY=0.5;entryDx=0;entryDy=0;" edge="1" parent="1" target="hvor46DNVKZ378C6uqmm-11">
          <mxGeometry width="50" height="50" relative="1" as="geometry">
            <mxPoint x="-54" y="687" as="sourcePoint" />
            <mxPoint x="-4" y="637" as="targetPoint" />
          </mxGeometry>
        </mxCell>
        <mxCell id="hvor46DNVKZ378C6uqmm-13" value="" style="endArrow=classic;html=1;rounded=0;entryX=0;entryY=0.5;entryDx=0;entryDy=0;" edge="1" parent="1" target="hvor46DNVKZ378C6uqmm-3">
          <mxGeometry width="50" height="50" relative="1" as="geometry">
            <mxPoint x="425" y="420" as="sourcePoint" />
            <mxPoint x="475" y="370" as="targetPoint" />
          </mxGeometry>
        </mxCell>
        <mxCell id="hvor46DNVKZ378C6uqmm-14" value="" style="endArrow=classic;html=1;rounded=0;entryX=0.006;entryY=0.6;entryDx=0;entryDy=0;entryPerimeter=0;" edge="1" parent="1" target="hvor46DNVKZ378C6uqmm-4">
          <mxGeometry width="50" height="50" relative="1" as="geometry">
            <mxPoint x="-24" y="563" as="sourcePoint" />
            <mxPoint x="26" y="513" as="targetPoint" />
          </mxGeometry>
        </mxCell>
        <mxCell id="hvor46DNVKZ378C6uqmm-20" style="edgeStyle=orthogonalEdgeStyle;rounded=0;orthogonalLoop=1;jettySize=auto;html=1;exitX=0.5;exitY=1;exitDx=0;exitDy=0;entryX=0.5;entryY=0;entryDx=0;entryDy=0;" edge="1" parent="1" source="hvor46DNVKZ378C6uqmm-18" target="hvor46DNVKZ378C6uqmm-2">
          <mxGeometry relative="1" as="geometry" />
        </mxCell>
        <mxCell id="hvor46DNVKZ378C6uqmm-18" value="&lt;font style=&quot;font-size: 20px;&quot;&gt;Python 指令&lt;/font&gt;" style="rounded=0;whiteSpace=wrap;html=1;" vertex="1" parent="1">
          <mxGeometry x="244" y="212" width="180" height="76" as="geometry" />
        </mxCell>
        <mxCell id="hvor46DNVKZ378C6uqmm-21" value="PYTHON_EVAL" style="text;html=1;align=center;verticalAlign=middle;resizable=0;points=[];autosize=1;strokeColor=none;fillColor=none;" vertex="1" parent="1">
          <mxGeometry x="478" y="454" width="104" height="26" as="geometry" />
        </mxCell>
        <mxCell id="hvor46DNVKZ378C6uqmm-22" value="&lt;font style=&quot;font-size: 20px;&quot;&gt;外部&lt;/font&gt;" style="rounded=0;whiteSpace=wrap;html=1;" vertex="1" parent="1">
          <mxGeometry x="597" y="651" width="167" height="78" as="geometry" />
        </mxCell>
        <mxCell id="hvor46DNVKZ378C6uqmm-23" style="edgeStyle=orthogonalEdgeStyle;rounded=0;orthogonalLoop=1;jettySize=auto;html=1;exitX=1;exitY=0.5;exitDx=0;exitDy=0;entryX=0;entryY=0.5;entryDx=0;entryDy=0;" edge="1" parent="1" source="hvor46DNVKZ378C6uqmm-11" target="hvor46DNVKZ378C6uqmm-22">
          <mxGeometry relative="1" as="geometry" />
        </mxCell>
      </root>
    </mxGraphModel>
  </diagram>
</mxfile>
